<?xml version="1.0" standalone="no"?>
<!DOCTYPE svg PUBLIC "-//W3C//DTD SVG 20010904//EN"
 "http://www.w3.org/TR/2001/REC-SVG-20010904/DTD/svg10.dtd">
<svg version="1.0" xmlns="http://www.w3.org/2000/svg"
 width="36.000000pt" height="32.000000pt" viewBox="0 0 36.000000 32.000000"
 preserveAspectRatio="xMidYMid meet">

<g transform="translate(0.000000,32.000000) scale(0.100000,-0.100000)"
fill="#000000" stroke="none">
<path d="M2 284 c-3 -36 20 -49 32 -19 3 8 16 15 29 15 13 0 28 5 34 11 6 6
38 15 70 19 49 7 42 8 -53 7 l-110 0 -2 -33z"/>
<path d="M45 261 c-3 -5 -1 -12 4 -15 5 -3 11 1 15 9 6 16 -9 21 -19 6z"/>
<path d="M41 214 c0 -11 3 -14 6 -6 3 7 2 16 -1 19 -3 4 -6 -2 -5 -13z"/>
<path d="M135 180 c-3 -5 -1 -10 4 -10 6 0 11 5 11 10 0 6 -2 10 -4 10 -3 0
-8 -4 -11 -10z"/>
<path d="M150 130 c0 -18 4 -29 10 -25 6 3 10 15 10 25 0 10 -4 22 -10 25 -6
4 -10 -7 -10 -25z"/>
<path d="M246 145 c-8 -23 -8 -35 3 -35 13 0 23 32 13 42 -6 6 -12 3 -16 -7z"/>
<path d="M326 123 c-26 -4 -28 -7 -22 -36 3 -17 3 -28 0 -25 -3 4 -26 -2 -50
-12 -24 -11 -50 -18 -57 -16 -36 12 -77 15 -72 6 3 -6 1 -10 -5 -10 -7 0 -14
9 -17 20 -4 14 -9 17 -17 11 -6 -5 -27 -13 -46 -18 -20 -5 -36 -17 -38 -26 -3
-15 13 -17 177 -17 l181 0 0 65 c0 36 -1 64 -2 64 -2 -1 -16 -4 -32 -6z"/>
</g>
</svg>
